<svg width="21" height="20" viewBox="0 0 21 20" fill="none" xmlns="http://www.w3.org/2000/svg">
<path d="M10.4918 4.61444C7.51349 4.61444 5.10073 6.79922 5.10073 9.49379C5.10073 12.1894 7.51349 14.3742 10.4918 14.3742C13.4678 14.3742 15.8829 12.1894 15.8829 9.49379C15.8829 6.79922 13.4678 4.61444 10.4918 4.61444ZM10.4918 12.6644C8.5572 12.6644 6.98873 11.2448 6.98873 9.49485C6.98873 7.74385 8.5572 6.32532 10.4918 6.32532C12.4265 6.32532 13.9926 7.74385 13.9926 9.49485C13.9926 11.2448 12.4265 12.6644 10.4918 12.6644Z" fill="#010D26"/>
<path d="M16.0975 5.57279C16.7918 5.57279 17.3546 5.06339 17.3546 4.43501C17.3546 3.80663 16.7918 3.29723 16.0975 3.29723C15.4032 3.29723 14.8404 3.80663 14.8404 4.43501C14.8404 5.06339 15.4032 5.57279 16.0975 5.57279Z" fill="#010D26"/>
<path d="M20.4437 3.27823C19.8968 2.00219 18.7832 0.99318 17.3733 0.500284C16.5581 0.2227 15.6964 0.0738815 14.8241 0.0569943C13.7011 0.0126653 13.3454 0 10.4977 0C7.64993 0 7.28493 -1.0616e-07 6.17126 0.0569943C5.30131 0.0728261 4.43953 0.221645 3.62439 0.500284C2.21335 0.99318 1.09968 2.00219 0.55392 3.27823C0.247223 4.01705 0.0827965 4.79597 0.0653043 5.58545C0.0151599 6.6008 0 6.92271 0 9.50118C0 12.0786 -8.68848e-09 12.4068 0.0653043 13.4169C0.0827965 14.2064 0.247223 14.9853 0.55392 15.7252C1.10084 17.0002 2.21452 18.0092 3.62556 18.5031C4.43719 18.7902 5.29898 18.9528 6.17359 18.9781C7.29659 19.0224 7.65227 19.0361 10.5 19.0361C13.3477 19.0361 13.7127 19.0361 14.8264 18.9781C15.6975 18.9623 16.5593 18.8124 17.3756 18.5359C18.7855 18.0408 19.8992 17.0329 20.4461 15.7568C20.7528 15.018 20.9172 14.2391 20.9347 13.4496C20.9848 12.4343 21 12.1124 21 9.5339C21 6.95543 21 6.62824 20.9347 5.61817C20.9195 4.81814 20.7563 4.02549 20.4437 3.27823ZM19.0234 13.3388C19.0152 13.9467 18.8939 14.5494 18.6607 15.1204C18.305 15.951 17.5809 16.6075 16.6643 16.9263C16.0404 17.1363 15.3827 17.2461 14.7168 17.2545C13.609 17.301 13.2964 17.3126 10.4557 17.3126C7.61262 17.3126 7.32225 17.3126 6.19341 17.2545C5.52988 17.2471 4.86984 17.1363 4.24711 16.9263C3.32702 16.6086 2.59818 15.9521 2.2425 15.1204C2.01394 14.5568 1.89033 13.9605 1.87983 13.3589C1.82969 12.3562 1.81803 12.0733 1.81803 9.50224C1.81803 6.9301 1.81803 6.66729 1.87983 5.64456C1.88799 5.03662 2.00927 4.43501 2.2425 3.86401C2.59818 3.03126 3.32702 2.37582 4.24711 2.05708C4.86984 1.8481 5.52988 1.73727 6.19341 1.72883C7.30242 1.68345 7.61378 1.67078 10.4557 1.67078C13.2976 1.67078 13.5891 1.67078 14.7168 1.72883C15.3827 1.73622 16.0404 1.84704 16.6643 2.05708C17.5809 2.37688 18.305 3.03337 18.6607 3.86401C18.8893 4.42762 19.0129 5.02395 19.0234 5.62556C19.0735 6.62929 19.0863 6.9111 19.0863 9.48324C19.0863 12.0543 19.0864 12.3308 19.0362 13.3399H19.0234V13.3388Z" fill="#010D26"/>
</svg>
