<svg width="14" height="16" viewBox="0 0 14 16" fill="none" xmlns="http://www.w3.org/2000/svg">
<path d="M6.80544 3.74401C4.87356 3.74401 3.30854 5.51667 3.30854 7.70296C3.30854 9.8901 4.87356 11.6628 6.80544 11.6628C8.7358 11.6628 10.3023 9.8901 10.3023 7.70296C10.3023 5.51667 8.7358 3.74401 6.80544 3.74401ZM6.80544 10.2755C5.55055 10.2755 4.53317 9.12366 4.53317 7.70382C4.53317 6.28312 5.55055 5.13217 6.80544 5.13217C8.06032 5.13217 9.07618 6.28312 9.07618 7.70382C9.07618 9.12366 8.06032 10.2755 6.80544 10.2755Z" fill="#CEF670"/>
<path d="M10.4415 4.52158C10.8918 4.52158 11.2569 4.10827 11.2569 3.59843C11.2569 3.08858 10.8918 2.67527 10.4415 2.67527C9.99117 2.67527 9.62609 3.08858 9.62609 3.59843C9.62609 4.10827 9.99117 4.52158 10.4415 4.52158Z" fill="#CEF670"/>
<path d="M13.2607 2.65985C12.9059 1.62452 12.1835 0.805835 11.269 0.405915C10.7403 0.180692 10.1813 0.0599451 9.6155 0.0462434C8.88708 0.0102762 8.65637 0 6.80922 0C4.96206 0 4.7253 -8.61351e-08 4.00293 0.0462434C3.43865 0.0590888 2.87966 0.179836 2.35093 0.405915C1.43567 0.805835 0.713296 1.62452 0.359295 2.65985C0.160359 3.25931 0.0537052 3.8913 0.042359 4.53186C0.00983335 5.35568 0 5.61687 0 7.70895C0 9.80019 -5.63571e-09 10.0665 0.042359 10.8861C0.0537052 11.5266 0.160359 12.1586 0.359295 12.7589C0.714052 13.7934 1.43643 14.6121 2.35168 15.0128C2.87815 15.2458 3.43713 15.3777 4.00444 15.3982C4.73287 15.4342 4.96357 15.4453 6.81073 15.4453C8.65789 15.4453 8.89464 15.4453 9.61702 15.3982C10.1821 15.3854 10.741 15.2638 11.2705 15.0394C12.185 14.6378 12.9074 13.8199 13.2622 12.7846C13.4611 12.1852 13.5678 11.5532 13.5791 10.9126C13.6116 10.0888 13.6215 9.82759 13.6215 7.7355C13.6215 5.64341 13.6215 5.37794 13.5791 4.55841C13.5693 3.90928 13.4634 3.26616 13.2607 2.65985ZM12.3393 10.8227C12.334 11.3159 12.2554 11.8049 12.1041 12.2682C11.8734 12.9422 11.4037 13.4748 10.8091 13.7334C10.4044 13.9039 9.97783 13.9929 9.54591 13.9998C8.82732 14.0375 8.62461 14.0469 6.78199 14.0469C4.93786 14.0469 4.74951 14.0469 4.0173 13.9998C3.5869 13.9938 3.15877 13.9039 2.75485 13.7334C2.15804 13.4757 1.68529 12.943 1.45458 12.2682C1.30632 11.8109 1.22614 11.3271 1.21934 10.839C1.18681 10.0254 1.17925 9.79591 1.17925 7.70981C1.17925 5.62286 1.17925 5.40963 1.21934 4.57981C1.22463 4.08655 1.3033 3.59843 1.45458 3.13513C1.68529 2.45947 2.15804 1.92767 2.75485 1.66905C3.15877 1.49949 3.5869 1.40957 4.0173 1.40272C4.73665 1.36589 4.93861 1.35562 6.78199 1.35562C8.62536 1.35562 8.81446 1.35562 9.54591 1.40272C9.97783 1.40871 10.4044 1.49863 10.8091 1.66905C11.4037 1.92852 11.8734 2.46118 12.1041 3.13513C12.2524 3.59243 12.3325 4.07627 12.3393 4.5644C12.3719 5.3788 12.3802 5.60745 12.3802 7.6944C12.3802 9.78049 12.3802 10.0049 12.3477 10.8235H12.3393V10.8227Z" fill="#CEF670"/>
</svg>
