<svg width="51" height="34" viewBox="0 0 51 34" fill="none" xmlns="http://www.w3.org/2000/svg">
<path d="M34.2281 9.60121L33.2704 7.68021C33.2267 7.6128 33.1625 7.55215 33.082 7.50206C33.0015 7.45196 32.9062 7.41351 32.8023 7.38912C32.6984 7.36473 32.5881 7.35493 32.4782 7.36033C32.3684 7.36573 32.2614 7.38621 32.164 7.42049C30.8635 7.88044 27.9933 8.66527 26.945 8.90799C28.9552 9.38494 31.9019 10.3275 33.3356 10.2264C33.8796 10.1887 34.4505 9.93555 34.2281 9.60121ZM48.6922 32.81C48.127 33.0225 39.4711 34.408 22.3125 24.3988C17.1176 21.368 1.69998 12.1635 1.89973 11.8499C1.89973 11.8499 1.43365 12.1899 1.0469 12.545C0.767813 12.801 0.594979 13.073 0.658729 13.3459C1.0979 15.2037 5.0674 16.9528 10.5216 19.7502L11.2993 20.1488L11.8136 20.4123C12.6466 20.8392 15.0946 22.1264 17.9463 23.6262C21.8464 25.6766 29.682 29.7557 29.9101 29.869C32.9134 31.3555 36.4763 32.5295 40.7716 33.337C46.2088 34.3579 48.6922 32.81 48.6922 32.81Z" fill="#8899A6"/>
<path d="M48.6922 32.81C48.6922 32.81 49.368 32.6032 50.0664 31.943C50.7648 31.2829 51.1856 30.1259 50.1302 28.8755C49.0748 27.626 45.2342 24.039 43.9748 22.5751C43.3613 21.862 43.554 21.2085 42.381 19.8976C42.381 19.8976 37.8987 14.6814 36.907 13.5481C34.7863 11.1237 35.717 9.86286 34.3046 9.13942C33.3625 8.65681 23.9544 9.29619 21.0913 7.82758C19.1123 6.81325 19.0825 3.64558 18.2538 2.60858C17.5936 1.78219 15.3921 2.15997 13.8805 2.71247C12.3689 3.26497 8.25209 6.29097 7.25759 7.15325C6.26309 8.01553 4.98951 8.95619 4.87901 9.91858L4.76709 10.88C4.76709 10.88 27.2368 25.1884 33.6317 28.0746C44.5358 32.9961 48.6922 32.81 48.6922 32.81Z" fill="#CEF670"/>
<path d="M35.0485 9.88271C34.9026 9.58615 34.6958 9.33965 34.3048 9.13849C33.3627 8.65588 23.9546 9.29621 21.0915 7.82665C19.1124 6.81232 19.0827 3.64371 18.2539 2.60766C17.9961 2.2856 17.5003 2.1496 16.9053 2.13354C17.8828 3.45577 17.785 7.39788 20.1806 8.62566C23.0678 10.1075 31.5366 9.69571 35.0485 9.88271Z" fill="#010101"/>
<path d="M18.7921 16.88C19.5075 15.4898 20.2711 12.2381 18.8969 10.3048C17.6092 8.4943 12.6055 4.68063 11.6549 3.95813C9.89826 5.00174 7.55084 6.82735 6.84251 7.44124C5.90751 8.25157 4.78126 9.16202 4.72601 10.0866C4.70617 10.4191 4.84926 10.5683 4.84926 10.5683C4.84926 10.5683 18.7638 16.9348 18.7921 16.88Z" fill="#AECF62"/>
<path d="M32.735 13.464C32.4572 13.4651 32.1876 13.4012 31.9732 13.2834C31.7588 13.1657 31.6131 13.0015 31.5616 12.8195C31.51 12.6375 31.5558 12.4492 31.691 12.2875C31.8262 12.1257 32.0422 12.0006 32.3015 11.934L34.8841 11.2588C35.1736 11.1937 35.4895 11.2055 35.7664 11.2915C36.0434 11.3775 36.2601 11.5312 36.3717 11.7208C36.4833 11.9104 36.4813 12.1213 36.366 12.3099C36.2507 12.4985 36.031 12.6504 35.7525 12.734L33.1699 13.4093C33.0313 13.4453 32.8838 13.4639 32.735 13.464ZM34.6432 16.3569C34.3809 16.3577 34.1255 16.3006 33.917 16.1944C33.7085 16.0882 33.5586 15.939 33.4908 15.77C33.4229 15.601 33.441 15.4218 33.5421 15.2604C33.6432 15.099 33.8217 14.9645 34.0496 14.8779L36.5897 13.9042C36.8621 13.8071 37.1805 13.7845 37.4775 13.8412C37.7744 13.8979 38.0266 14.0294 38.1805 14.208C38.3345 14.3865 38.3782 14.598 38.3023 14.7976C38.2264 14.9972 38.037 15.1693 37.7741 15.2774L35.234 16.2511C35.0544 16.3204 34.8507 16.3569 34.6432 16.3569ZM37.223 18.956C36.973 18.9565 36.7291 18.9044 36.5261 18.8071C36.3231 18.7098 36.1714 18.5723 36.0925 18.4141C36.0137 18.2559 36.0118 18.0852 36.0871 17.9262C36.1624 17.7673 36.311 17.6282 36.5118 17.5289L38.6566 16.4627C38.9103 16.3512 39.2182 16.3087 39.5173 16.3437C39.8165 16.3788 40.0842 16.4888 40.2657 16.6511C40.4472 16.8135 40.5286 17.016 40.4934 17.2171C40.4581 17.4183 40.3088 17.6028 40.0761 17.7329L37.9313 18.7983C37.7273 18.9009 37.4785 18.9563 37.223 18.956ZM39.9784 21.3842C39.7336 21.3837 39.495 21.3329 39.2952 21.2387C39.0953 21.1445 38.9438 21.0116 38.8614 20.8579C38.779 20.7043 38.7697 20.5374 38.8347 20.3801C38.8997 20.2228 39.0359 20.0826 39.2247 19.9788L40.861 19.0835C41.1062 18.9614 41.4127 18.9069 41.7166 18.9316C42.0205 18.9562 42.2985 19.0579 42.4927 19.2157C42.687 19.3734 42.7826 19.575 42.7597 19.7785C42.7368 19.982 42.5971 20.1718 42.3697 20.3084L40.7335 21.2038C40.5206 21.3202 40.2538 21.3839 39.9784 21.3842ZM4.53339 10.1623C4.53339 10.1623 5.48964 10.7403 6.55214 10.8479C7.61464 10.9556 9.49739 11.7452 10.7922 12.4091C12.0871 13.073 17.0241 15.5182 20.0487 17.5507C23.0733 19.5831 27.8333 23.7651 29.6835 24.9768C31.5336 26.1876 34.5186 27.9924 37.07 29.0823C39.6214 30.1722 41.9646 31.0949 43.4676 31.6191C45.4056 32.2953 47.1963 32.6995 48.6923 32.81C48.171 33.014 45.4156 33.7035 40.6315 32.6164C36.0585 31.5766 33.0778 30.4499 30.6142 29.2297C28.1506 28.0094 14.7362 20.911 12.539 19.7843C10.3417 18.6575 3.77264 15.3189 2.73564 14.3188C1.2623 12.8983 1.33314 12.2769 1.6193 12.0294C2.3163 11.424 3.78822 9.77976 4.53339 10.1623Z" fill="#CCD6DD"/>
<path d="M50.1302 28.8755C49.0748 27.626 45.2342 24.039 43.9748 22.5751C43.7283 22.288 43.6107 22.0094 43.4832 21.6958C43.3543 21.7279 43.2155 21.7468 43.1022 21.7987C41.4673 22.5467 41.4758 24.8068 43.9111 27.1698C45.8632 29.0644 48.9969 30.5245 50.7564 30.5471C50.7932 30.039 50.6317 29.4686 50.1302 28.8755Z" fill="#C0DB80"/>
</svg>
