<svg width="16" height="15" viewBox="0 0 16 15" fill="none" xmlns="http://www.w3.org/2000/svg">
<path d="M15.8229 1.75121C15.2407 2.04354 14.615 2.2411 13.9585 2.32993C14.6286 1.87507 15.1434 1.15482 15.3857 0.296549C14.7585 0.717772 14.0638 1.02362 13.3243 1.18841C12.7322 0.474113 11.8886 0.027832 10.9549 0.027832C9.16209 0.027832 7.7085 1.67336 7.7085 3.70306C7.7085 3.99111 7.73724 4.27163 7.79261 4.54065C5.09466 4.38736 2.70263 2.92416 1.10157 0.700533C0.822126 1.24335 0.662039 1.87468 0.662039 2.54826C0.662039 3.82338 1.23512 4.94832 2.10619 5.60746C1.5741 5.58827 1.07349 5.42299 0.635852 5.14771C0.635542 5.16307 0.635542 5.17841 0.635542 5.19391C0.635542 6.97468 1.75454 8.46008 3.23956 8.79776C2.96718 8.88177 2.68039 8.92673 2.38433 8.92673C2.17515 8.92673 1.97179 8.90361 1.77354 8.86079C2.18666 10.3208 3.3855 11.3835 4.80605 11.4131C3.69505 12.399 2.29532 12.9865 0.774381 12.9865C0.512353 12.9865 0.253957 12.9691 0 12.9351C1.43662 13.9779 3.14298 14.5864 4.97621 14.5864C10.9472 14.5864 14.2125 8.98608 14.2125 4.12923C14.2125 3.96991 14.2093 3.8114 14.203 3.65374C14.8374 3.13554 15.3877 2.48825 15.8229 1.75121Z" fill="#CEF670"/>
</svg>
