<svg width="24" height="23" viewBox="0 0 24 23" fill="none" xmlns="http://www.w3.org/2000/svg">
<path d="M12 0C8.324 0 5.33333 2.67538 5.33333 5.96384C5.33333 9.2523 8.324 11.9277 12 11.9277C15.676 11.9277 18.6667 9.2523 18.6667 5.96384C18.6667 2.67538 15.676 0 12 0ZM12 9.54215C9.79467 9.54215 8 7.93668 8 5.96384C8 3.991 9.79467 2.38554 12 2.38554C14.2053 2.38554 16 3.991 16 5.96384C16 7.93668 14.2053 9.54215 12 9.54215ZM24 22.6626V21.4698C24 16.8669 19.812 13.1205 14.6667 13.1205H9.33333C4.18667 13.1205 0 16.8669 0 21.4698V22.6626H2.66667V21.4698C2.66667 18.1814 5.65733 15.506 9.33333 15.506H14.6667C18.3427 15.506 21.3333 18.1814 21.3333 21.4698V22.6626H24Z" fill="#010D26"/>
</svg>
